name rise49.25peak52.1432fall72.8391.mot
datacolumns 19
datarows 18
range 0.96999200000000 0.99832400000000
endheader
time	ground_force1_vx	ground_force1_vy	ground_force1_vz	ground_force1_px	ground_force1_py	ground_force1_pz	ground_force2_vx	ground_force2_vy	ground_force2_vz	ground_force2_px	ground_force2_py	ground_force2_pz	ground_torque1_x	ground_torque1_y	ground_torque1_z	ground_torque2_x	ground_torque2_y	ground_torque2_z	
0.96999200000000	-28.80274300000000	788.53706599999998	51.52159600000000	0.17271700000000	0.00000000000000	0.09807200000000	0.00000000000000	0.00000000000000	0.00000000000000	0.00000000000000	0.00000000000000	0.00000000000000	0.00000000000000	25.65777400000000	0.00000000000000	0.00000000000000	0.00000000000000	0.00000000000000	
0.97166600000000	-29.57926800000000	788.47734500000001	51.70918800000000	0.17134200000000	0.00000000000000	0.09807500000000	0.00000000000000	0.00000000000000	0.00000000000000	0.00000000000000	0.00000000000000	0.00000000000000	0.00000000000000	25.69495900000000	0.00000000000000	0.00000000000000	0.00000000000000	0.00000000000000	
0.97333100000000	-30.36848800000000	788.32085099999995	51.88490900000000	0.16995800000000	0.00000000000000	0.09807900000000	-0.88567900000000	3.62264300000000	0.05419700000000	0.00000000000000	0.00000000000000	0.00000000000000	0.00000000000000	25.72872500000000	0.00000000000000	0.00000000000000	-0.06917200000000	0.00000000000000	
0.97499600000000	-31.17013000000000	788.06246699999997	52.04772900000000	0.16856700000000	0.00000000000000	0.09808200000000	-1.42638700000000	7.25614200000000	0.08433800000000	0.00000000000000	0.00000000000000	0.00000000000000	0.00000000000000	25.75896400000000	0.00000000000000	0.00000000000000	-0.11739800000000	0.00000000000000	
0.97666000000000	-31.98386100000000	787.69701699999996	52.19661500000000	0.16716900000000	0.00000000000000	0.09808400000000	-2.03875400000000	11.68347000000000	0.11739700000000	0.00000000000000	0.00000000000000	0.00000000000000	0.00000000000000	25.78556600000000	0.00000000000000	0.00000000000000	-0.17333300000000	0.00000000000000	
0.97832900000000	-32.80928800000000	787.21927100000005	52.33052900000000	0.16576800000000	0.00000000000000	0.09808600000000	-2.70409200000000	16.86778100000000	0.15189600000000	0.00000000000000	0.00000000000000	0.00000000000000	0.00000000000000	25.80842200000000	0.00000000000000	0.00000000000000	-0.23568900000000	0.00000000000000	
0.98000100000000	-33.64595800000000	786.62396300000000	52.44843600000000	0.16436500000000	0.00000000000000	0.09808700000000	-3.39890000000000	22.73828000000000	0.18603200000000	0.00000000000000	0.00000000000000	0.00000000000000	0.00000000000000	25.82742700000000	0.00000000000000	0.00000000000000	-0.30274400000000	0.00000000000000	
0.98166000000000	-34.49335600000000	785.90579600000001	52.54930300000000	0.16296100000000	0.00000000000000	0.09808600000000	-4.09634400000000	29.19565200000000	0.21776400000000	0.32739000000000	0.00000000000000	-0.09893900000000	0.00000000000000	25.84247400000000	0.00000000000000	0.00000000000000	-0.70645100000000	0.00000000000000	
0.98333200000000	-35.35090600000000	785.05946100000006	52.63210700000000	0.16155900000000	0.00000000000000	0.09808500000000	-4.76814600000000	36.12053300000000	0.24492800000000	0.33282000000000	0.00000000000000	-0.09917900000000	0.00000000000000	25.85345900000000	0.00000000000000	0.00000000000000	-0.83399500000000	0.00000000000000	
0.98500300000000	-36.21796900000000	784.07964300000003	52.69583800000000	0.16016100000000	0.00000000000000	0.09808200000000	-5.38663400000000	43.38386300000000	0.26536000000000	0.33773900000000	0.00000000000000	-0.09937400000000	0.00000000000000	25.86027800000000	0.00000000000000	0.00000000000000	-0.95668300000000	0.00000000000000	
0.98665800000000	-37.09384400000000	782.96103900000003	52.73950300000000	0.15876800000000	0.00000000000000	0.09807700000000	-5.92669100000000	50.85766500000000	0.27701200000000	0.34224800000000	0.00000000000000	-0.09953500000000	0.00000000000000	25.86282600000000	0.00000000000000	0.00000000000000	-1.07071300000000	0.00000000000000	
0.98832400000000	-37.97777000000000	781.69837099999995	52.76212800000000	0.15738200000000	0.00000000000000	0.09807100000000	-6.36732800000000	58.42479000000000	0.27805200000000	0.34642300000000	0.00000000000000	-0.09966500000000	0.00000000000000	25.86100100000000	0.00000000000000	0.00000000000000	-1.17294700000000	0.00000000000000	
0.98999600000000	-38.86892000000000	780.28639799999996	52.76276500000000	0.15600600000000	0.00000000000000	0.09806200000000	-6.69276800000000	65.98659100000000	0.26693000000000	0.35032400000000	0.00000000000000	-0.09977200000000	0.00000000000000	25.85469800000000	0.00000000000000	0.00000000000000	-1.26109700000000	0.00000000000000	
0.99165900000000	-39.76641100000000	778.71992999999998	52.74049500000000	0.15464000000000	0.00000000000000	0.09805200000000	-6.89294100000000	73.46797800000000	0.24241600000000	0.35399600000000	0.00000000000000	-0.09985700000000	0.00000000000000	25.84381400000000	0.00000000000000	0.00000000000000	-1.33380900000000	0.00000000000000	
0.99332600000000	-40.66929500000000	776.99384599999996	52.69443200000000	0.15328800000000	0.00000000000000	0.09803900000000	-6.96345800000000	80.81974200000001	0.20359900000000	0.35747700000000	0.00000000000000	-0.09992500000000	0.00000000000000	25.82824200000000	0.00000000000000	0.00000000000000	-1.39066600000000	0.00000000000000	
0.99500000000000	-41.57656600000000	775.10310400000003	52.62372700000000	0.15195200000000	0.00000000000000	0.09802300000000	-6.90512500000000	88.01836000000000	0.14987100000000	0.36079400000000	0.00000000000000	-0.09997700000000	0.00000000000000	25.80787700000000	0.00000000000000	0.00000000000000	-1.43211400000000	0.00000000000000	
0.99666600000000	-42.48715800000000	773.04276000000004	52.52757400000000	0.15063100000000	0.00000000000000	0.09800500000000	-6.72311500000000	95.06373100000000	0.08087700000000	0.36397100000000	0.00000000000000	-0.10001800000000	0.00000000000000	25.78260900000000	0.00000000000000	0.00000000000000	-1.45932700000000	0.00000000000000	
0.99832400000000	-43.39994800000000	770.80798000000004	52.40520900000000	0.14933000000000	0.00000000000000	0.09798500000000	-6.42593000000000	101.97536500000000	-0.00353600000000	0.36702600000000	0.00000000000000	-0.10004700000000	0.00000000000000	25.75232900000000	0.00000000000000	0.00000000000000	-1.47404600000000	0.00000000000000	
